<?xml version="1.0" standalone="no"?>
<!DOCTYPE svg PUBLIC "-//W3C//DTD SVG 20010904//EN"
 "http://www.w3.org/TR/2001/REC-SVG-20010904/DTD/svg10.dtd">
<svg version="1.0" xmlns="http://www.w3.org/2000/svg"
 width="920.000000pt" height="929.000000pt" viewBox="0 0 920.000000 929.000000"
 preserveAspectRatio="xMidYMid meet">

<g transform="translate(0.000000,929.000000) scale(0.100000,-0.100000)"
fill="#000000" stroke="none">
<path d="M4720 9285 c-8 -2 -61 -9 -117 -15 -93 -11 -105 -15 -142 -46 -112
-96 -138 -328 -46 -414 l24 -23 -39 -28 c-53 -39 -87 -88 -155 -222 -110 -221
-105 -344 22 -458 23 -21 57 -43 77 -50 24 -9 36 -19 36 -32 0 -26 36 -165 67
-262 37 -117 80 -155 170 -155 109 0 222 52 279 127 l32 43 11 -51 c6 -27 20
-67 31 -89 19 -38 19 -39 1 -82 -29 -67 -34 -149 -16 -268 8 -58 22 -127 30
-154 14 -47 14 -51 -5 -71 -30 -32 -112 -215 -118 -264 -5 -43 -5 -43 -38 -38
-37 6 -44 -4 -44 -60 0 -39 47 -158 88 -224 l28 -44 -48 -75 -49 -74 -77 3
c-73 2 -81 5 -157 54 -44 28 -132 77 -195 110 -85 43 -143 83 -222 150 -60 51
-108 96 -108 101 0 5 11 19 25 32 32 29 32 68 0 99 -28 29 -79 33 -105 10 -16
-14 -23 -13 -81 21 -79 45 -160 121 -207 194 -52 81 -163 218 -224 276 -128
122 -214 170 -313 173 -64 2 -72 5 -108 38 -47 42 -146 89 -212 100 -76 13
-307 -4 -366 -26 -43 -17 -58 -18 -107 -9 -49 9 -68 8 -135 -11 -94 -25 -172
-64 -187 -90 -5 -11 -10 -32 -10 -48 0 -24 -8 -32 -58 -57 -34 -18 -91 -64
-143 -115 -73 -73 -93 -100 -132 -181 -138 -289 -125 -665 35 -975 l41 -80
-12 -170 c-27 -409 1 -665 95 -861 21 -44 39 -81 41 -84 2 -3 -3 -15 -11 -25
-14 -19 -16 -19 -53 16 -51 49 -76 61 -151 74 l-63 10 -3 66 c-5 100 -58 187
-152 246 -31 20 -42 32 -38 43 36 81 48 132 48 215 1 75 -3 98 -23 138 -35 71
-77 99 -159 104 -58 4 -85 -1 -201 -37 -158 -49 -255 -91 -293 -127 -32 -30
-29 -32 -58 26 -74 148 -263 247 -400 211 -43 -11 -129 -61 -179 -104 -32 -29
-79 -124 -96 -198 -8 -35 -22 -137 -31 -228 -18 -179 -14 -317 12 -417 20 -78
74 -188 121 -242 l38 -45 -3 -90 c-3 -69 1 -107 16 -156 42 -135 41 -138 -34
-365 -49 -148 -67 -260 -66 -405 1 -370 141 -598 456 -745 164 -77 339 -115
529 -115 190 0 380 52 541 147 117 69 251 205 298 303 50 102 72 216 66 344
l-5 100 124 150 c69 83 129 153 134 154 5 2 9 -5 9 -16 0 -29 69 -129 148
-214 l72 -76 -29 -25 c-58 -49 -66 -77 -66 -242 0 -184 19 -266 67 -291 17 -9
27 -21 25 -29 -20 -51 -29 -149 -24 -252 6 -109 5 -116 -17 -152 -80 -125
-247 -508 -285 -651 -17 -63 -31 -128 -31 -143 0 -21 -13 -40 -51 -75 -60 -55
-93 -116 -118 -215 -25 -98 -54 -340 -48 -400 l4 -49 -41 6 c-119 20 -126 20
-126 1 0 -10 8 -24 17 -31 16 -12 11 -13 -37 -14 -54 0 -109 -11 -163 -32 -39
-15 -31 -42 13 -48 l35 -5 -48 -28 c-45 -26 -50 -27 -85 -15 -21 7 -78 12
-132 12 -243 -1 -467 -152 -550 -369 -33 -85 -34 -241 -2 -340 30 -96 72 -166
122 -200 73 -50 214 -67 380 -44 100 14 241 12 451 -5 146 -12 212 -12 414 -2
132 7 321 14 420 15 195 2 436 28 520 57 67 24 149 105 165 165 10 36 9 68 -5
173 -9 71 -23 148 -30 172 -12 40 -11 44 9 57 38 26 118 111 152 162 19 28 60
69 92 93 32 23 71 55 86 71 l28 29 55 -24 c153 -68 393 -116 585 -118 76 0
138 -2 138 -2 0 -1 -13 -16 -29 -33 -92 -98 -120 -339 -56 -478 24 -54 87
-122 112 -123 7 0 34 -14 60 -30 62 -39 175 -75 285 -89 85 -11 1124 -8 1343
4 50 2 171 7 270 10 252 8 400 25 455 55 27 15 70 162 70 242 0 82 -19 147
-68 228 -62 104 -147 158 -275 175 l-48 6 3 37 c2 29 0 36 -12 34 -8 -2 -39
-6 -67 -9 -57 -6 -66 2 -33 32 11 10 20 22 20 27 0 5 -113 7 -255 6 l-255 -3
42 34 c24 19 124 116 223 217 177 180 213 209 488 403 104 74 105 74 101 110
-14 104 -13 102 -61 123 -25 11 -71 22 -103 25 l-57 6 -6 90 c-3 50 -5 93 -3
94 1 2 65 -13 142 -32 157 -40 349 -76 534 -102 186 -25 676 -25 815 1 317 58
548 162 756 339 201 172 363 451 425 737 28 126 25 385 -5 495 -30 111 -78
208 -143 289 -52 64 -168 166 -189 166 -16 0 -23 -30 -10 -43 6 -6 11 -40 11
-76 1 -37 9 -114 18 -172 15 -86 16 -116 7 -155 -18 -76 -49 -137 -113 -221
-69 -90 -136 -150 -243 -216 l-76 -47 -109 59 c-187 100 -207 114 -254 177
-56 73 -86 161 -101 291 -18 164 9 303 91 462 91 177 213 324 612 735 316 327
406 457 459 664 47 186 -4 369 -138 492 -63 57 -123 80 -213 80 -91 0 -167
-21 -295 -84 -130 -63 -244 -143 -369 -258 l-90 -83 -105 1 c-175 2 -327 64
-395 161 -24 35 -29 53 -30 103 l-1 62 145 52 c416 150 703 377 855 676 66
130 80 197 80 370 -1 140 -4 164 -28 245 -113 370 -466 762 -742 823 -72 16
-151 18 -148 4 2 -7 18 -33 37 -59 114 -161 169 -364 185 -680 8 -149 -1 -368
-15 -382 -12 -12 -119 21 -161 50 -27 18 -103 86 -169 151 -126 123 -173 153
-256 164 -61 8 -157 -18 -232 -63 -118 -72 -285 -251 -409 -438 -33 -49 -57
-81 -54 -70 42 141 34 286 -17 345 -8 8 -19 53 -26 99 -17 121 -44 201 -111
329 -91 174 -162 268 -356 476 -91 98 -113 127 -113 151 0 49 -42 123 -137
245 -107 137 -194 220 -306 294 l-84 55 -42 115 c-68 182 -185 342 -287 392
-81 40 -306 74 -384 59z m240 -86 c25 -5 75 -19 111 -30 l65 -21 80 -113 c43
-63 103 -160 132 -216 l53 -101 -7 -72 c-10 -108 -20 -121 -26 -35 -10 123
-110 361 -180 426 -26 25 -93 55 -101 46 -4 -3 -20 6 -36 20 -44 36 -124 74
-211 97 l-75 20 75 -5 c41 -4 95 -11 120 -16z m-97 -399 c127 -13 208 -42 251
-91 62 -68 50 -74 -72 -30 -60 21 -129 48 -153 59 -57 25 -137 72 -124 72 6 0
50 -5 98 -10z m756 -274 c117 -109 225 -231 265 -301 13 -22 31 -65 41 -95 10
-30 31 -73 48 -95 86 -117 318 -462 364 -543 62 -107 84 -155 124 -271 40
-117 43 -161 21 -261 l-19 -85 -7 60 c-26 214 -71 375 -146 526 -73 144 -170
277 -289 393 -60 60 -72 68 -86 56 -13 -11 -18 -10 -30 6 -8 10 -18 30 -21 44
-46 196 -72 265 -128 344 -17 24 -86 100 -153 170 -84 85 -121 130 -117 141 3
8 9 15 13 15 4 0 58 -47 120 -104z m74 -223 c145 -247 136 -228 131 -317 -7
-105 -18 -125 -33 -57 -6 29 -25 85 -42 124 -30 69 -139 377 -134 377 2 0 37
-57 78 -127z m-101 -86 c19 -34 56 -109 82 -166 46 -102 46 -106 36 -156 -6
-29 -17 -61 -25 -71 -13 -17 -14 -9 -15 69 l0 88 -22 -15 c-35 -25 -38 -20
-32 42 7 65 -11 143 -52 224 -45 88 -21 76 28 -15z m-1108 -282 c19 -66 46
-151 60 -190 22 -61 23 -67 7 -47 -28 32 -76 163 -95 254 -32 153 -19 145 28
-17z m1436 -49 c0 -2 -8 -10 -17 -17 -16 -13 -17 -12 -4 4 13 16 21 21 21 13z
m-3337 -333 c-7 -2 -19 -2 -25 0 -7 3 -2 5 12 5 14 0 19 -2 13 -5z m184 1 c-3
-3 -12 -4 -19 -1 -8 3 -5 6 6 6 11 1 17 -2 13 -5z m-400 -10 c-3 -3 -12 -4
-19 -1 -8 3 -5 6 6 6 11 1 17 -2 13 -5z m148 -4 c3 -6 -1 -7 -9 -4 -18 7 -21
14 -7 14 6 0 13 -4 16 -10z m-238 -6 c-3 -3 -12 -4 -19 -1 -8 3 -5 6 6 6 11 1
17 -2 13 -5z m529 -9 c77 -8 118 -25 134 -56 20 -37 6 -49 -56 -49 -66 0 -133
29 -171 74 -19 23 -21 31 -11 37 7 5 18 7 24 5 6 -2 42 -7 80 -11z m-573 -2
c-7 -2 -19 -2 -25 0 -7 3 -2 5 12 5 14 0 19 -2 13 -5z m322 -13 c10 -11 16
-20 13 -20 -3 0 -13 9 -23 20 -10 11 -16 20 -13 20 3 0 13 -9 23 -20z m91
-173 c71 -84 98 -130 110 -186 l5 -26 -21 25 c-12 14 -43 48 -69 75 -73 77
-206 238 -214 257 -4 13 11 7 55 -20 40 -25 85 -66 134 -125z m-21 113 c21
-22 37 -40 34 -40 -3 0 -23 18 -44 40 -21 22 -37 40 -34 40 3 0 23 -18 44 -40z
m3625 -42 c12 -20 20 -51 20 -76 0 -36 7 -52 39 -90 52 -63 67 -96 91 -194 20
-84 28 -258 12 -258 -5 0 -16 42 -25 93 -10 50 -32 148 -50 216 -31 121 -33
125 -63 133 -47 12 -59 32 -47 73 9 29 8 36 -8 51 -18 17 -26 64 -12 77 13 13
23 7 43 -25z m-3780 -23 l35 -40 -37 34 c-21 19 -38 39 -38 45 0 5 1 7 3 5 1
-2 18 -22 37 -44z m377 0 c18 -26 5 -45 -33 -45 -25 0 -38 7 -50 25 -25 38
-13 55 33 45 20 -5 43 -16 50 -25z m-170 18 c-4 -3 -1 -13 6 -22 11 -14 10
-14 -5 -2 -16 12 -16 31 -1 31 4 0 3 -3 0 -7z m582 -20 c43 -17 101 -60 101
-75 0 -7 -15 -8 -42 -4 -112 17 -156 44 -143 87 7 21 16 20 84 -8z m-180 14
c-2 -1 -15 -11 -29 -22 l-25 -20 19 23 c11 12 24 22 29 22 6 0 8 -1 6 -3z
m1974 -184 c7 -79 10 -143 7 -143 -3 0 -15 24 -26 53 -21 56 -27 214 -10 252
l10 20 3 -20 c2 -11 9 -84 16 -162z m-2342 130 c13 -16 12 -17 -3 -4 -10 7
-18 15 -18 17 0 8 8 3 21 -13z m302 2 c-3 -9 -8 -14 -10 -11 -3 3 -2 9 2 15 9
16 15 13 8 -4z m-469 -41 c3 -8 2 -12 -4 -9 -6 3 -10 10 -10 16 0 14 7 11 14
-7z m197 -1 c13 -16 12 -17 -3 -4 -10 7 -18 15 -18 17 0 8 8 3 21 -13z m684
-43 c19 -22 19 -22 -17 1 -20 13 -37 28 -38 32 0 12 33 -8 55 -33z m-658 23
c-4 -3 -1 -13 6 -22 11 -14 10 -14 -5 -2 -16 12 -16 31 -1 31 4 0 3 -3 0 -7z
m42 -77 c-3 -3 -11 5 -18 17 -13 21 -12 21 5 5 10 -10 16 -20 13 -22z m501
-19 c0 -30 -99 -87 -150 -87 -56 0 -35 63 30 89 39 15 120 14 120 -2z m76 -31
c22 -17 11 -35 -13 -20 -19 12 -29 34 -16 34 5 0 18 -6 29 -14z m-636 -91 c14
-19 14 -19 -2 -6 -10 7 -18 18 -18 24 0 6 1 8 3 6 1 -2 9 -13 17 -24z m-270
-45 c16 0 100 -79 90 -85 -13 -8 -49 12 -94 52 -38 34 -46 49 -20 39 9 -3 19
-6 24 -6z m4077 -27 c38 -138 -89 -402 -262 -546 l-50 -41 62 66 c80 87 116
141 164 243 36 77 39 89 39 174 0 84 11 131 32 131 4 0 11 -12 15 -27z m-3143
-9 c3 -9 6 -23 5 -32 -1 -10 -4 -7 -8 8 -4 14 -13 24 -20 22 -7 -1 -10 2 -6 8
9 15 22 12 29 -6z m-14 -48 c0 -42 -48 -102 -123 -156 -110 -78 -201 -107
-285 -89 -44 9 -51 13 -41 25 6 8 15 14 19 14 4 0 46 22 93 50 48 27 118 66
157 85 38 20 89 52 112 70 55 44 68 44 68 1z m-80 9 c0 -2 -18 -14 -40 -25
-22 -11 -40 -18 -40 -15 0 2 17 13 38 24 42 23 42 23 42 16z m-1610 -109 c0
-18 -7 -39 -15 -46 -13 -10 -15 -9 -15 11 0 34 11 69 21 69 5 0 9 -15 9 -34z
m1455 24 c-3 -5 -12 -10 -18 -10 -7 0 -6 4 3 10 19 12 23 12 15 0z m-35 -15
c0 -2 -13 -11 -30 -20 -38 -19 -40 -11 -2 9 31 17 32 18 32 11z m-1062 -130
c0 -22 -4 -53 -7 -70 -7 -29 -8 -28 -24 24 -20 64 -21 94 -5 124 11 22 12 22
24 -8 7 -16 13 -48 12 -70z m553 65 c36 -20 18 -57 -21 -45 -13 4 -20 15 -20
31 0 26 11 30 41 14z m1420 -6 c11 -14 10 -19 -10 -35 -17 -14 -27 -16 -42 -9
-24 13 -24 36 -1 49 24 15 38 13 53 -5z m-1066 -14 c-3 -5 -12 -10 -18 -10 -7
0 -6 4 3 10 19 12 23 12 15 0z m-49 -25 c-11 -8 -25 -15 -30 -15 -6 1 0 7 14
15 32 19 40 18 16 0z m-1225 -223 c13 -66 58 -212 88 -291 l20 -54 -24 23
c-34 32 -84 140 -100 217 -14 68 -20 184 -15 278 2 43 4 39 11 -33 4 -45 13
-108 20 -140z m2225 203 c-3 -8 0 -14 7 -12 7 1 11 -4 10 -10 -2 -9 10 -13 35
-13 35 -1 36 -2 18 -15 -28 -21 -63 -19 -76 4 -13 26 -13 61 1 61 6 0 9 -7 5
-15z m197 -181 c140 -120 132 -112 124 -120 -3 -4 -31 16 -62 44 -30 28 -89
72 -130 97 -73 46 -82 55 -68 68 13 13 25 6 136 -89z m2301 -86 c-74 -127
-239 -343 -323 -420 -108 -100 -255 -166 -426 -193 -34 -5 -22 3 72 54 130 69
376 224 405 255 35 37 47 60 50 98 2 34 9 42 73 87 38 27 88 68 110 90 40 42
52 50 39 29z m-4086 -38 c12 0 22 -4 22 -10 0 -6 -28 -10 -65 -10 -36 0 -65 4
-65 8 0 18 16 24 50 18 19 -3 45 -6 58 -6z m-485 -149 c18 -30 18 -31 -2 -31
-25 0 -61 45 -61 78 l0 25 23 -21 c12 -11 30 -35 40 -51z m1223 -5 c10 -26
-15 -57 -43 -54 -34 4 -51 31 -34 52 17 20 70 21 77 2z m-53 -90 c36 -1 36 -1
17 -20 -35 -36 -113 5 -96 50 7 18 8 17 25 -5 13 -18 29 -25 54 -25z m1713 29
c20 -8 34 -20 32 -27 -8 -24 -36 -19 -70 11 -38 35 -22 41 38 16z m-2856
-1044 c16 -80 28 -146 26 -148 -10 -10 -70 150 -86 229 -22 105 -36 337 -25
394 7 33 12 8 32 -146 13 -102 37 -250 53 -329z m2886 -82 c18 -20 18 -29 1
-29 -22 0 -45 32 -66 91 -10 30 -22 63 -26 74 -4 11 12 -11 35 -50 24 -38 49
-77 56 -86z m-4684 53 c8 -87 55 -241 104 -340 23 -48 41 -88 39 -90 -7 -7
-89 117 -123 187 -35 71 -37 81 -41 188 -2 69 1 113 7 113 5 0 12 -26 14 -58z
m4291 -60 c9 -26 14 -48 12 -51 -4 -3 -38 63 -64 124 -2 6 5 2 17 -8 11 -10
27 -39 35 -65z m497 -115 l64 -68 -44 3 c-43 3 -45 5 -82 68 -20 36 -37 68
-37 72 -2 19 40 -13 99 -75z m-2788 27 c-55 -36 -62 -57 -24 -62 12 -2 22 -7
22 -11 0 -5 -27 -27 -60 -50 -33 -23 -67 -56 -76 -74 l-16 -31 -14 25 c-19 35
-17 45 15 93 42 60 90 106 136 127 65 30 74 22 17 -17z m2348 7 c0 -18 -18
-21 -30 -6 -10 13 -9 15 9 15 11 0 21 -4 21 -9z m-501 -19 c9 -16 1 -23 -60
-50 l-70 -31 -10 26 c-5 14 -8 28 -5 30 4 4 114 40 128 42 4 1 12 -7 17 -17z
m-243 -66 c24 -52 30 -76 17 -76 -7 0 -26 42 -61 129 -4 10 -1 12 7 6 7 -4 24
-31 37 -59z m774 7 c16 -36 18 -48 8 -54 -8 -5 -15 -3 -17 4 -2 7 -12 31 -22
55 -14 34 -15 42 -4 42 8 0 23 -21 35 -47z m-485 -44 c4 -11 5 -22 3 -23 -11
-7 -132 -56 -134 -53 -1 1 -5 13 -9 27 -6 24 -2 27 57 47 80 27 75 27 83 2z
m1050 -64 l69 -65 -41 0 c-37 0 -44 4 -83 55 -24 31 -50 60 -59 65 -12 7 -9 9
14 9 23 0 46 -15 100 -64z m-505 15 c0 -15 -7 -20 -25 -20 -14 0 -25 2 -25 4
0 2 -3 11 -6 20 -5 13 1 16 25 16 24 0 31 -4 31 -20z m-770 -14 c0 -7 -9 -16
-20 -19 -19 -5 -28 12 -13 26 11 12 33 7 33 -7z m264 -43 c8 -21 4 -24 -68
-52 -48 -20 -60 -21 -67 -10 -17 26 -4 42 46 60 64 22 81 23 89 2z m496 2 c0
-8 -4 -15 -9 -15 -5 0 -11 7 -15 15 -3 9 0 15 9 15 8 0 15 -7 15 -15z m-727
-37 c11 -28 14 -45 7 -52 -12 -12 -13 -11 -38 47 -19 43 -19 47 -4 47 10 0 24
-16 35 -42z m775 -51 c31 -73 27 -82 -8 -17 -31 59 -35 70 -22 70 5 0 18 -24
30 -53z m627 -27 c48 -48 48 -50 23 -50 -18 0 -29 7 -33 20 -3 10 -27 37 -52
60 -41 36 -43 39 -16 30 16 -6 51 -33 78 -60z m-1345 -10 c8 -16 8 -20 -4 -20
-8 0 -21 -3 -29 -6 -15 -5 -31 21 -21 37 10 16 43 9 54 -11z m-3568 -25 c10
-4 13 -36 12 -138 0 -116 10 -216 31 -297 6 -20 3 -19 -16 10 -28 44 -58 221
-59 343 0 84 3 93 32 82z m3558 -30 c0 -8 -4 -15 -9 -15 -5 0 -11 7 -15 15 -3
9 0 15 9 15 8 0 15 -7 15 -15z m1426 -16 c29 -10 142 -179 121 -179 -1 0 -20
9 -42 20 -22 11 -44 20 -51 20 -6 0 -14 14 -18 31 -3 17 -22 47 -41 66 -19 19
-35 42 -35 50 0 14 10 13 66 -8z m-928 -32 c19 -28 20 -32 6 -35 -9 -2 -21 1
-28 8 -8 8 -7 10 7 5 23 -10 22 4 -5 32 -12 13 -17 23 -12 23 5 0 19 -15 32
-33z m-50 11 c-2 -7 3 -12 10 -10 8 1 11 -2 7 -8 -5 -8 -14 -5 -28 7 -12 10
-24 19 -26 20 -2 2 5 3 17 3 12 0 21 -6 20 -12z m-399 -54 c28 -75 18 -83 -14
-10 -28 63 -29 66 -16 66 4 0 18 -25 30 -56z m334 -16 c-8 -15 -35 -8 -65 17
-24 21 -27 26 -13 31 9 4 19 4 22 0 4 -3 1 -6 -6 -6 -7 0 -9 -5 -6 -10 4 -6
11 -8 16 -4 5 3 8 0 7 -8 -2 -7 8 -14 21 -16 l23 -4 -21 23 c-11 13 -21 27
-21 31 0 5 11 -3 24 -19 13 -15 22 -31 19 -35z m-137 -19 c16 -17 16 -22 4
-29 -19 -12 -27 -12 -35 -1 -3 5 0 13 6 17 8 4 9 3 5 -4 -4 -7 -3 -12 3 -12
21 0 20 19 -1 34 -12 9 -18 16 -12 16 6 0 19 -9 30 -21z m-46 -6 c0 -10 -4
-14 -8 -8 -4 6 -11 13 -16 18 -5 4 -2 7 7 7 10 0 17 -8 17 -17z m716 -54 c61
-16 123 -73 131 -121 3 -20 3 -49 -1 -63 -9 -34 -76 -107 -93 -101 -7 3 -13 1
-13 -5 0 -6 -7 -9 -15 -5 -8 3 -15 0 -15 -6 0 -6 -2 -9 -6 -6 -3 3 -22 2 -42
-3 -41 -9 -167 -22 -224 -23 -20 -1 -34 -5 -30 -10 3 -5 -9 -6 -29 -3 -25 5
-30 4 -19 -3 11 -8 7 -10 -17 -6 -18 2 -35 1 -38 -4 -3 -5 -13 -7 -23 -6 -9 2
-31 -3 -49 -10 -31 -13 -32 -13 -38 16 -4 16 -3 35 1 41 5 8 3 9 -6 4 -10 -6
-12 -3 -8 13 4 12 2 20 -3 16 -5 -3 -9 3 -9 13 0 10 -16 63 -35 118 -19 55
-31 103 -27 106 4 3 84 15 177 27 94 12 181 24 195 26 59 8 195 5 236 -5z
m1087 -127 c4 -21 3 -31 -3 -27 -6 3 -10 20 -10 37 0 38 5 34 13 -10z m-48
-12 c10 -11 14 -20 8 -20 -5 0 -18 9 -28 20 -10 11 -14 20 -8 20 5 0 18 -9 28
-20z m95 -1 c0 -5 -4 -9 -10 -9 -5 0 -10 7 -10 16 0 8 5 12 10 9 6 -3 10 -10
10 -16z m-5488 -82 c9 -45 20 -93 23 -107 l7 -25 -21 23 c-11 13 -25 40 -31
60 -12 43 -13 132 -2 132 4 0 15 -37 24 -83z m5487 34 c8 -5 9 -11 3 -15 -5
-3 -15 1 -22 9 -14 16 -3 20 19 6z m69 -14 c2 -10 -3 -17 -12 -17 -10 0 -16 9
-16 21 0 24 23 21 28 -4z m-198 -22 c0 -5 -5 -3 -10 5 -5 8 -10 20 -10 25 0 6
5 3 10 -5 5 -8 10 -19 10 -25z m35 1 c8 -7 11 -16 8 -20 -11 -11 -21 -6 -26
14 -6 23 -1 25 18 6z m-5510 -126 l-13 -85 -1 110 c0 99 1 107 14 85 11 -21
11 -39 0 -110z m5703 98 c-6 -18 -28 -21 -28 -4 0 9 7 16 16 16 9 0 14 -5 12
-12z m-133 -28 c16 -16 24 -30 17 -30 -6 0 -16 8 -21 18 -6 9 -11 13 -11 8 0
-11 -30 14 -30 25 0 17 16 9 45 -21z m167 -12 c-15 -15 -26 -4 -18 18 5 13 9
15 18 6 9 -9 9 -15 0 -24z m-28 -37 c3 -5 0 -14 -8 -20 -10 -9 -15 -8 -19 3
-9 22 15 37 27 17z m60 -20 c3 -5 -1 -15 -10 -22 -13 -10 -17 -10 -24 1 -5 8
-6 18 -4 22 7 11 31 10 38 -1z m-2804 -26 c10 -12 10 -18 0 -30 -25 -30 -61
-7 -46 30 3 8 12 15 19 15 8 0 20 -7 27 -15z m2760 -32 c0 -5 -4 -14 -9 -22
-11 -17 -32 -5 -24 14 5 15 33 21 33 8z m-2895 -28 c0 -30 -39 -27 -43 3 -3
20 0 23 20 20 15 -2 23 -10 23 -23z m2945 -26 c0 -12 -7 -19 -20 -19 -22 0
-26 20 -8 38 15 15 28 6 28 -19z m-5851 -151 c-6 -36 -11 -106 -11 -155 0 -48
-2 -117 -5 -153 -6 -60 -7 -62 -14 -30 -24 107 -16 313 18 465 13 60 25 -53
12 -127z m80 88 c5 -25 5 -48 1 -51 -7 -4 -20 51 -20 89 0 32 9 13 19 -38z
m2717 43 c10 -17 -13 -36 -27 -22 -12 12 -4 33 11 33 5 0 12 -5 16 -11z m-118
-28 c3 -8 -1 -12 -9 -9 -7 2 -15 10 -17 17 -3 8 1 12 9 9 7 -2 15 -10 17 -17z
m-88 -32 c0 -10 -6 -19 -14 -19 -15 0 -29 27 -21 40 9 15 35 -1 35 -21z m507
-5 c-3 -3 -12 -4 -19 -1 -8 3 -5 6 6 6 11 1 17 -2 13 -5z m-71 -29 c-11 -8
-29 -15 -40 -15 -17 1 -15 4 9 15 40 18 55 18 31 0z m-306 -41 c0 -16 -26 -19
-35 -4 -3 6 -4 14 0 20 8 13 35 1 35 -16z m243 0 c-3 -8 -12 -13 -20 -10 -8 3
-22 6 -31 6 -15 0 -15 2 -2 10 25 16 60 12 53 -6z m-348 -37 c0 -26 -20 -25
-23 2 -3 16 1 22 10 19 7 -3 13 -12 13 -21z m241 -14 c-5 -12 -10 -13 -18 -5
-8 8 -8 15 3 28 15 18 25 4 15 -23z m54 33 c0 -2 -7 -9 -15 -16 -12 -10 -15
-10 -15 4 0 9 7 16 15 16 8 0 15 -2 15 -4z m-153 -77 c6 -6 9 -18 6 -26 -5
-12 -9 -11 -24 3 -10 9 -16 21 -13 25 7 12 18 11 31 -2z m-92 -39 c4 -6 4 -18
1 -27 -5 -12 -9 -13 -21 -3 -8 7 -15 19 -15 26 0 16 26 19 35 4z m2966 -120
c54 -144 81 -331 56 -392 -14 -34 -14 -41 2 -85 32 -86 44 -179 38 -297 -7
-128 -24 -187 -78 -266 -34 -51 -129 -152 -129 -138 0 3 15 46 34 94 46 120
63 183 76 289 6 49 15 92 19 95 22 14 19 98 -6 187 -25 87 -26 94 -10 111 16
17 16 21 -3 60 -25 52 -25 68 0 75 15 4 20 14 20 36 0 48 -28 175 -56 251 -13
37 -24 71 -24 76 1 20 41 -44 61 -96z m-3382 -179 c6 -63 9 -117 6 -119 -17
-17 -43 135 -36 218 5 79 17 40 30 -99z m-2198 -43 c11 -39 27 -85 36 -102 15
-29 15 -30 -1 -17 -23 19 -86 144 -86 170 0 11 3 27 6 36 7 16 8 16 16 1 5
-10 18 -49 29 -88z m2363 -443 c-24 -47 -44 -94 -44 -103 0 -9 -14 -25 -30
-34 l-30 -17 16 32 c56 109 117 205 130 207 1 0 -18 -38 -42 -85z m-44 -152
c0 -3 -25 -32 -55 -64 -49 -52 -105 -144 -105 -175 0 -12 -29 -28 -37 -21 -8
8 102 194 135 230 32 33 62 48 62 30z m-203 -375 c-24 -46 -52 -104 -62 -130
-11 -30 -24 -48 -38 -52 -12 -3 -22 -4 -24 -2 -4 3 49 138 80 205 18 37 35 58
54 66 15 7 29 8 31 3 2 -4 -16 -45 -41 -90z m-106 -288 c-20 -69 -31 -91 -49
-100 -13 -5 -24 -10 -26 -10 -5 0 19 99 34 144 10 32 33 52 61 55 3 1 -6 -39
-20 -89z m-5 -152 l10 -43 -48 0 c-40 0 -48 3 -48 18 0 21 43 67 63 67 8 0 18
-18 23 -42z m3711 -34 c-3 -3 -12 -4 -19 -1 -8 3 -5 6 6 6 11 1 17 -2 13 -5z
m125 -19 c41 -15 46 -19 55 -60 12 -52 8 -54 -53 -26 -34 16 -43 25 -48 54 -5
26 -13 37 -29 40 -20 4 -19 4 4 6 14 0 46 -6 71 -14z m556 -47 l47 -23 -54 -3
c-48 -3 -57 0 -75 22 -12 13 -30 27 -41 30 -11 3 2 3 28 1 27 -3 70 -15 95
-27z m-651 6 c-3 -3 -12 -4 -19 -1 -8 3 -5 6 6 6 11 1 17 -2 13 -5z m483 -14
c-8 -5 -19 -10 -25 -10 -5 0 -3 5 5 10 8 5 20 10 25 10 6 0 3 -5 -5 -10z m15
-30 c-3 -5 -12 -10 -18 -10 -7 0 -6 4 3 10 19 12 23 12 15 0z m-240 -48 c-3
-3 -11 0 -18 7 -9 10 -8 11 6 5 10 -3 15 -9 12 -12z m-4290 -649 c55 -20 105
-39 110 -44 6 -4 60 -29 120 -56 61 -26 129 -59 152 -72 40 -23 42 -26 29 -46
-19 -28 -48 -127 -40 -134 4 -3 16 7 28 23 71 98 106 133 160 161 147 75 360
21 512 -130 109 -107 173 -257 174 -402 0 -54 -3 -65 -22 -77 -43 -27 -145
-55 -224 -61 -43 -4 -90 -9 -104 -12 -14 -2 -110 -7 -215 -9 -180 -4 -192 -3
-233 17 -24 12 -50 32 -58 43 -29 46 -33 187 -9 375 12 96 -13 76 -43 -35 -20
-72 -25 -116 -26 -225 -2 -151 -4 -157 -68 -190 -65 -33 -146 -46 -268 -44
-249 5 -418 43 -520 115 -82 59 -78 335 7 493 60 110 160 190 296 236 28 10
51 22 50 27 -1 4 -19 14 -40 20 -34 11 -30 12 43 7 94 -6 110 4 67 43 l-28 25
25 -6 c14 -4 70 -22 125 -42z m4345 -132 c0 -6 -4 -13 -10 -16 -5 -3 -10 -13
-10 -21 0 -11 15 -14 74 -12 80 3 96 -3 76 -27 -17 -21 -9 -27 50 -36 197 -31
320 -188 320 -412 0 -96 14 -88 -201 -118 -89 -12 -143 -8 -172 14 -10 7 -21
36 -27 69 -18 115 -109 281 -192 352 -23 20 -66 44 -95 53 -29 9 -53 20 -53
25 0 4 -48 5 -107 1 l-108 -6 19 22 c11 11 17 23 15 25 -2 3 -66 -12 -141 -32
-76 -20 -135 -38 -133 -40 4 -4 47 4 163 32 l64 15 -19 -21 -18 -20 101 3 c75
3 100 1 97 -8 -3 -7 3 -10 15 -6 32 8 141 -55 202 -116 56 -56 98 -131 120
-212 11 -40 10 -44 -12 -61 -83 -66 -195 -95 -403 -103 -178 -7 -482 -7 -650
0 -60 2 -202 7 -315 10 -227 7 -336 24 -474 77 -56 22 -92 44 -126 77 -44 42
-49 52 -56 106 -10 85 8 187 48 265 l33 65 87 7 c48 3 134 16 192 29 l105 22
46 -42 c75 -69 175 -106 329 -120 l71 -6 -77 -29 c-43 -16 -78 -32 -78 -37 0
-5 6 -6 13 -4 6 2 86 25 177 50 91 26 208 60 260 77 248 79 302 89 518 97 112
5 206 11 209 15 10 10 73 7 73 -3z m-4866 -7 c13 -5 7 -18 -29 -69 -86 -119
-138 -278 -139 -425 -1 -88 -4 -99 -34 -152 -39 -68 -101 -124 -154 -140 -29
-8 -55 -8 -107 1 l-70 13 -29 71 c-53 128 -69 223 -53 313 30 162 163 311 325
364 74 24 252 39 290 24z"/>
<path d="M3000 6150 c0 -6 7 -10 15 -10 8 0 15 2 15 4 0 2 -7 6 -15 10 -8 3
-15 1 -15 -4z"/>
<path d="M3852 4942 c-30 -10 -51 -20 -47 -23 8 -9 105 22 105 33 0 4 -1 8 -2
7 -2 -1 -27 -8 -56 -17z"/>
<path d="M3893 4837 c-24 -5 -43 -14 -43 -20 0 -10 37 -3 84 18 36 16 19 17
-41 2z"/>
<path d="M3941 4736 c-25 -6 -46 -17 -48 -23 -5 -13 83 12 102 28 11 11 3 10
-54 -5z"/>
<path d="M4585 4370 c-143 -94 -30 -320 127 -254 114 47 130 184 29 251 -44
30 -114 31 -156 3z m163 -34 c34 -31 37 -39 37 -86 0 -48 -3 -55 -37 -85 -31
-26 -46 -32 -80 -31 -25 0 -49 7 -56 16 -12 13 -13 13 -7 0 4 -8 -2 -5 -13 7
-11 12 -22 20 -25 17 -3 -3 -11 12 -17 33 -9 29 -9 49 -1 80 16 57 51 83 112
83 42 0 55 -5 87 -34z"/>
<path d="M4208 4304 c-7 -11 49 -204 65 -222 9 -11 12 -11 19 1 13 25 -70 244
-84 221z"/>
<path d="M4275 4258 c23 -113 54 -186 68 -161 8 16 -47 193 -61 193 -10 0 -12
-9 -7 -32z"/>
<path d="M4330 4273 c1 -25 23 -105 34 -122 7 -11 10 -11 17 1 4 8 -2 40 -14
76 -21 60 -37 80 -37 45z"/>
<path d="M4390 4233 c10 -51 20 -74 31 -68 9 6 1 60 -13 88 -15 30 -26 18 -18
-20z"/>
</g>
</svg>
