<?xml version="1.0" standalone="no"?>
<!DOCTYPE svg PUBLIC "-//W3C//DTD SVG 20010904//EN"
 "http://www.w3.org/TR/2001/REC-SVG-20010904/DTD/svg10.dtd">
<svg version="1.0" xmlns="http://www.w3.org/2000/svg"
 width="600.000000pt" height="652.000000pt" viewBox="0 0 600.000000 652.000000"
 preserveAspectRatio="xMidYMid meet">

<g transform="translate(0.000000,652.000000) scale(0.100000,-0.100000)"
fill="#000000" stroke="none">
<path d="M1615 6246 c-33 -8 -76 -16 -95 -19 -54 -7 -161 -45 -226 -81 -63
-35 -117 -95 -133 -149 -40 -130 -47 -140 -114 -187 -63 -44 -109 -86 -136
-125 -8 -11 8 2 35 30 53 54 131 110 167 120 21 6 21 6 -3 -14 -14 -11 -28
-21 -32 -21 -5 0 -8 -13 -8 -30 0 -20 12 -43 36 -70 20 -22 32 -40 26 -40 -21
0 -95 31 -119 50 -14 11 -29 17 -34 14 -14 -8 -11 -47 7 -89 20 -49 13 -68
-11 -27 -11 18 -23 32 -27 32 -11 0 -10 -28 2 -51 12 -21 1 -26 -18 -7 -9 9
-12 8 -12 -6 0 -11 22 -41 50 -69 27 -27 50 -51 50 -53 0 -1 -14 2 -32 7 -17
5 -48 25 -69 45 l-36 36 -7 -27 c-7 -28 -2 -38 43 -87 34 -38 14 -35 -33 4
-30 25 -37 27 -32 12 3 -10 10 -44 16 -73 6 -33 27 -81 51 -120 31 -49 35 -61
18 -46 -57 48 -91 112 -100 185 l-6 55 -2 -48 c0 -26 6 -61 14 -76 17 -34 11
-43 -22 -30 -45 17 -156 10 -239 -15 -155 -47 -180 -73 -59 -63 41 4 75 5 75
2 0 -2 -27 -12 -60 -21 -33 -9 -63 -21 -67 -27 -4 -6 1 -8 13 -4 10 4 54 16
97 28 48 14 77 27 77 36 0 11 17 13 82 11 87 -3 117 -21 51 -31 -97 -14 -314
-57 -325 -63 -7 -4 -8 -3 -4 4 12 19 -15 14 -51 -10 -42 -29 -37 -42 15 -46
23 -2 42 -6 41 -10 0 -4 -21 -20 -46 -37 -48 -31 -91 -80 -81 -91 4 -3 38 1
77 10 94 21 99 21 69 -11 -34 -36 -58 -86 -58 -118 0 -36 33 -33 115 10 52 27
65 31 60 17 -3 -9 -9 -29 -12 -44 -5 -24 -2 -28 18 -28 13 0 48 11 77 25 30
14 55 25 57 25 1 0 5 -35 9 -77 20 -240 26 -292 37 -317 11 -22 10 -32 -1 -49
-11 -19 -11 -20 1 -10 10 8 41 10 96 6 l82 -6 -37 -27 c-55 -41 -155 -148
-195 -211 -56 -88 -89 -176 -95 -254 -5 -66 -43 -175 -62 -175 -11 0 -20 79
-21 179 -1 70 -2 81 -10 56 -17 -51 3 -255 28 -284 2 -3 10 4 19 15 15 19 15
19 10 -1 -44 -176 -66 -316 -66 -435 0 -102 22 -326 39 -400 5 -25 12 -59 15
-75 11 -62 79 -251 118 -329 26 -52 41 -97 43 -128 6 -77 86 -194 155 -224 33
-15 39 -21 34 -41 -4 -13 -1 -30 6 -38 10 -12 -4 -30 -82 -107 -96 -95 -161
-183 -174 -233 -5 -22 -2 -31 16 -45 21 -16 22 -18 6 -47 -22 -44 -55 -169
-59 -230 -8 -113 28 -232 92 -306 36 -40 97 -63 266 -98 254 -54 692 -77 820
-44 127 33 395 198 520 319 l75 73 0 73 c0 99 -25 178 -59 188 -14 4 -118 7
-231 6 -132 0 -208 4 -212 11 -11 14 -10 63 1 69 5 4 64 9 130 12 l121 5 183
-82 c118 -53 196 -82 222 -83 42 -1 49 -8 177 -150 l35 -39 35 47 36 47 22
-30 c71 -101 163 -348 176 -476 l7 -65 71 -45 c161 -100 717 -335 793 -335 14
0 71 25 125 55 137 77 516 319 678 433 74 53 170 121 214 151 43 31 99 74 123
95 l45 40 -4 101 c-2 73 -8 109 -20 127 -29 44 -213 103 -545 172 -93 20 -179
36 -190 36 -14 0 -33 20 -63 66 -54 84 -143 179 -240 257 -41 33 -76 62 -78
63 -2 1 4 16 13 34 9 17 14 39 11 48 -10 29 -145 101 -251 133 -55 17 -113 35
-130 41 -72 25 -112 37 -136 42 l-26 6 -1 147 c-4 303 -44 536 -118 684 -24
48 -126 182 -159 209 -10 8 -31 32 -46 53 -39 54 -146 147 -169 147 -11 0 -43
15 -72 33 -95 60 -271 124 -398 143 -63 10 -116 22 -118 26 -2 4 -17 8 -33 8
-30 0 -32 7 -14 66 2 6 25 15 52 19 127 19 271 57 316 85 26 16 76 37 110 46
34 9 97 29 140 46 l79 30 22 -21 c26 -25 47 -26 85 -6 81 42 195 239 236 410
31 131 48 303 47 498 0 86 4 160 9 163 5 3 9 13 9 23 0 31 47 65 97 71 46 5
74 30 34 30 -27 0 -46 43 -31 70 38 72 -25 142 -114 127 l-34 -5 -16 88 c-9
48 -16 99 -16 112 0 14 -5 40 -11 57 -11 31 -14 33 -51 29 -33 -3 -39 -1 -44
19 -9 33 -68 81 -110 89 -20 4 -58 4 -86 1 -44 -6 -54 -3 -90 23 -22 16 -56
32 -74 36 -28 5 -34 11 -34 31 0 14 -7 37 -16 53 -20 33 -120 100 -186 125
-26 10 -62 28 -80 41 -17 13 -38 24 -45 24 -8 0 -26 8 -40 17 -19 13 -49 18
-98 19 -38 1 -110 9 -160 19 -122 23 -532 30 -620 11z m475 -16 c30 -5 100
-16 155 -25 113 -19 218 -45 319 -81 69 -25 123 -51 81 -40 -111 30 -485 108
-553 116 -164 19 -356 4 -397 -30 -8 -7 -29 -8 -52 -4 -61 11 -27 -11 50 -31
47 -13 67 -23 67 -34 0 -14 -18 -16 -137 -16 -108 0 -149 -4 -190 -18 -63 -22
-79 -42 -94 -118 -11 -56 -11 -57 -53 -63 -22 -3 -67 -12 -98 -20 -48 -12 -58
-12 -58 -1 0 27 59 167 84 200 44 58 175 122 310 152 127 28 433 35 566 13z
m548 -275 c-9 -10 -400 -35 -528 -34 -137 1 -140 3 -29 23 71 13 569 23 557
11z m106 -251 c230 -195 255 -219 251 -243 -19 -123 -40 -229 -57 -296 -29
-117 -96 -344 -113 -388 -8 -20 -15 -48 -15 -61 0 -35 -19 -45 -96 -51 -101
-9 -108 2 -45 65 28 28 64 75 79 103 23 45 27 63 27 142 0 142 -48 226 -160
277 -42 19 -65 23 -150 22 -65 -1 -115 -7 -144 -18 -52 -19 -61 -13 -61 49 0
108 -57 242 -136 321 -30 29 -54 57 -54 60 0 18 -55 76 -100 105 -41 27 -50
38 -50 62 0 28 1 29 38 23 23 -4 55 -1 87 10 44 14 179 25 392 32 l52 2 255
-216z m-124 145 c70 -66 71 -67 12 -18 -35 30 -74 62 -85 71 -12 10 -17 18
-12 18 6 0 44 -32 85 -71z m-620 51 c11 -7 7 -10 -17 -10 -18 0 -33 5 -33 10
0 13 30 13 50 0z m923 -24 c41 -17 73 -52 55 -58 -7 -3 -35 12 -61 33 -51 41
-49 49 6 25z m-1606 -48 c28 -10 56 -25 63 -32 7 -9 -12 -5 -47 10 -32 13 -78
26 -103 30 -35 6 -41 9 -25 15 22 8 36 5 112 -23z m1823 -31 c0 -13 -9 -32
-19 -41 -24 -22 -201 -99 -209 -91 -4 3 5 27 18 52 33 62 97 103 162 103 44 0
48 -2 48 -23z m-260 -84 c0 -10 -40 21 -75 58 l-40 42 58 -48 c31 -27 57 -50
57 -52z m-150 42 c13 -14 21 -25 18 -25 -2 0 -15 11 -28 25 -13 14 -21 25 -18
25 2 0 15 -11 28 -25z m142 -105 c17 0 118 -91 118 -107 0 -13 -87 53 -185
142 l-40 36 48 -36 c27 -19 53 -35 59 -35z m222 -10 c-18 -4 -45 -16 -61 -28
-23 -16 -33 -18 -42 -9 -9 9 -1 16 36 29 26 9 59 16 73 16 21 0 20 -1 -6 -8z
m44 -31 c-21 -12 -23 -40 -6 -57 18 -18 56 -15 67 6 9 16 11 16 32 -4 l21 -22
-30 -6 c-27 -7 -70 -41 -71 -59 -1 -21 -14 -57 -20 -57 -15 0 -121 102 -121
117 0 9 23 -5 61 -38 48 -42 63 -50 70 -38 9 15 4 21 -74 85 -54 44 -30 82 53
83 28 0 32 -2 18 -10z m40 -36 c-2 -10 -10 -18 -18 -18 -8 0 -16 8 -18 18 -2
12 3 17 18 17 15 0 20 -5 18 -17z m-1004 -187 c19 -64 21 -182 4 -192 -6 -4
-16 0 -23 9 -7 10 -17 17 -23 17 -6 0 -9 10 -6 23 7 30 21 157 19 184 -1 36
13 16 29 -41z m1341 34 c8 -7 15 -24 14 -39 0 -15 -3 -20 -6 -11 -3 8 -12 21
-21 28 -19 15 -116 17 -107 2 3 -5 19 -10 34 -10 16 0 37 -10 51 -25 12 -13
27 -22 31 -19 5 3 9 0 9 -5 0 -18 -15 -12 -41 15 -20 22 -30 25 -63 21 -22 -3
-59 -19 -82 -36 -25 -17 -46 -26 -49 -20 -4 5 -1 8 7 7 7 -2 12 3 10 10 -1 8
2 11 8 7 5 -3 10 -1 10 4 0 21 -19 11 -50 -26 -26 -31 -30 -44 -26 -72 3 -19
15 -44 27 -57 13 -13 20 -24 17 -24 -34 0 -68 49 -68 98 0 50 38 94 120 135
61 31 83 37 117 34 24 -3 50 -10 58 -17z m-44 -98 c-13 -4 -41 16 -41 29 0 5
12 2 26 -8 15 -9 21 -19 15 -21z m-47 9 c16 -18 16 -19 -9 -25 -16 -4 -33 -2
-41 5 -24 20 -17 29 27 38 3 0 14 -7 23 -18z m-439 -167 c-14 -82 -35 -201
-46 -264 l-20 -115 23 -15 c50 -33 102 -87 119 -125 21 -46 26 -143 6 -112
-95 147 -108 164 -146 185 -41 23 -81 23 -81 0 0 -6 -2 -9 -5 -6 -3 3 2 25 10
49 23 63 120 400 140 487 10 40 19 71 21 69 3 -2 -7 -71 -21 -153z m300 117
c-4 -14 5 -32 31 -60 l36 -41 -28 1 c-24 0 -26 2 -10 8 19 7 19 8 -1 22 -27
19 -44 54 -37 73 9 23 17 20 9 -3z m81 -34 c-12 -36 -13 -37 -29 -19 -9 10
-17 25 -16 33 0 8 5 3 10 -11 l10 -25 16 33 c21 42 26 36 9 -11z m-2561 23
c-16 -4 -55 -8 -85 -9 -31 0 -87 -10 -125 -20 -63 -18 -87 -20 -73 -6 16 17
163 44 233 43 57 0 71 -3 50 -8z m2690 -21 c-22 -12 -50 -31 -62 -42 -29 -26
-30 -11 -1 20 22 24 13 32 -12 11 -8 -7 -7 -4 2 7 12 14 31 21 65 22 l48 3
-40 -21z m-1870 -7 c-3 -3 -11 0 -18 7 -9 10 -8 11 6 5 10 -3 15 -9 12 -12z
m967 -7 c54 -19 107 -67 133 -121 20 -41 32 -164 21 -210 -6 -24 -10 -25 -49
-19 -67 10 -79 15 -73 32 3 8 9 32 12 54 l7 39 -44 0 c-93 -1 -234 -69 -338
-164 -25 -23 -73 -62 -105 -86 -32 -25 -69 -53 -81 -62 -21 -17 -27 -16 -126
13 -152 44 -230 29 -254 -49 -5 -18 -12 -32 -16 -32 -15 0 -40 41 -46 74 -12
74 58 123 158 112 l58 -7 55 85 c106 159 295 308 446 348 75 21 169 18 242 -7z
m-919 -4 c5 -1 5 -6 1 -13 -5 -8 -2 -9 9 -5 22 8 79 -12 70 -26 -4 -6 0 -8 10
-4 24 9 131 -24 115 -35 -9 -7 -7 -8 9 -5 19 4 23 -1 28 -34 4 -21 17 -48 30
-61 l23 -22 -50 -65 c-28 -36 -57 -80 -66 -97 -15 -32 -17 -32 -63 -27 -26 3
-61 1 -78 -5 -59 -21 -186 39 -211 98 -27 66 -4 174 59 277 20 31 30 34 114
24z m384 -128 l-35 -35 -4 36 c-4 34 -2 36 24 36 18 0 31 7 36 18 6 16 7 16
10 -2 3 -11 -9 -32 -31 -53z m1340 -270 c-7 -149 -27 -303 -38 -303 -10 0 -8
26 18 263 9 86 19 157 21 157 3 0 2 -53 -1 -117z m-2435 7 c40 -11 125 -29
188 -40 123 -23 163 -40 91 -40 -49 0 -265 42 -325 63 -22 7 -42 19 -44 25 -5
16 6 15 90 -8z m-47 -210 c10 -58 25 -126 35 -152 10 -27 17 -48 17 -48 -1 0
-28 -4 -61 -10 -101 -16 -117 5 -125 171 -3 65 -4 116 -2 114 9 -9 61 27 82
57 l23 32 7 -29 c4 -17 15 -77 24 -135z m989 48 c66 -19 63 -26 -11 -21 -95 6
-121 12 -102 24 19 12 64 11 113 -3z m720 -38 c30 -11 44 -37 84 -155 34 -100
55 -268 43 -345 l-8 -45 -7 38 c-5 20 -17 48 -28 62 -22 28 -42 27 -117 -6
-61 -28 -222 -81 -228 -76 -2 3 18 12 45 21 27 9 85 39 129 66 45 28 91 50
102 50 28 0 27 16 -1 24 l-23 6 28 25 c15 14 35 25 43 25 12 0 13 8 8 38 -4
20 -11 40 -17 43 -5 4 -5 9 2 13 19 12 12 26 -11 26 -18 0 -20 2 -8 10 12 7 8
23 -27 99 -23 50 -40 91 -38 91 2 0 15 -4 29 -10z m-889 -61 c-22 -11 -30 -17
-18 -15 13 2 25 1 28 -4 8 -13 -68 -41 -117 -43 -27 -1 -48 -5 -48 -9 0 -15
101 -8 132 8 27 14 37 14 72 4 23 -7 35 -15 29 -17 -7 -3 -13 -12 -13 -20 0
-11 8 -14 31 -11 26 4 32 1 43 -26 7 -17 16 -44 20 -59 6 -25 3 -29 -24 -38
-32 -12 -41 -39 -13 -39 14 0 12 -4 -7 -25 -16 -17 -34 -25 -59 -25 -54 -1
-117 -33 -148 -78 -42 -59 -138 -98 -266 -108 -59 -4 -167 12 -167 26 0 3 37
12 83 20 45 7 105 21 132 30 61 21 194 87 218 108 20 17 23 61 5 63 -28 3 -97
-3 -177 -17 -129 -22 -136 -16 -21 20 166 52 201 75 160 108 -17 14 -39 18
-100 18 -77 0 -79 -1 -138 -45 -168 -126 -257 -285 -232 -414 21 -112 82 -158
219 -168 112 -9 55 -26 -89 -26 -128 -1 -161 9 -238 71 -82 65 -109 169 -77
291 25 97 50 138 134 222 58 58 96 85 161 117 140 68 245 89 505 100 12 0 4
-7 -20 -19z m526 -45 c19 -5 51 -75 70 -148 l12 -50 -66 -62 c-68 -65 -244
-175 -442 -278 -60 -31 -102 -51 -92 -44 50 35 229 148 234 148 4 0 43 21 87
47 188 109 272 179 262 219 -7 26 -40 64 -56 64 -5 0 -16 13 -24 29 -16 30
-59 51 -104 51 -25 0 -25 0 -6 21 16 17 26 20 64 14 25 -3 52 -8 61 -11z
m-421 -304 c0 -6 -11 -10 -23 -10 -13 0 -43 -14 -66 -31 -51 -36 -88 -31 -63
8 17 27 152 56 152 33z m477 -136 c-3 -3 -12 -4 -19 -1 -8 3 -5 6 6 6 11 1 17
-2 13 -5z m-40 -10 c-3 -3 -12 -4 -19 -1 -8 3 -5 6 6 6 11 1 17 -2 13 -5z
m-117 -22 c-14 -2 -30 -8 -36 -13 -12 -10 -64 5 -64 18 0 5 28 6 62 4 35 -3
52 -7 38 -9z m73 11 c-7 -2 -19 -2 -25 0 -7 3 -2 5 12 5 14 0 19 -2 13 -5z
m-1374 -305 l59 -54 -19 -94 c-26 -128 -38 -278 -46 -570 -6 -251 1 -355 33
-476 20 -79 14 -99 -41 -119 l-44 -17 20 -40 c24 -47 14 -68 -33 -68 -22 0
-29 4 -25 15 4 8 -14 56 -38 108 -95 201 -146 404 -166 670 -14 181 -6 280 42
494 22 103 40 156 81 237 l52 105 33 -69 c23 -47 51 -84 92 -122z m1852 -82
c70 -29 199 -93 199 -99 0 -1 -12 -3 -27 -4 -17 -1 -72 23 -145 64 -103 56
-129 73 -114 73 2 0 41 -15 87 -34z m208 -140 c45 -24 101 -92 101 -125 0 -19
-6 -31 -17 -34 -10 -3 -48 -17 -85 -31 l-66 -25 -71 85 c-46 54 -67 86 -59 89
64 24 155 54 161 55 4 0 20 -6 36 -14z m-256 -122 c16 -19 24 -34 19 -34 -6 0
-14 5 -17 10 -10 16 -78 11 -102 -8 -12 -9 -28 -39 -35 -66 -12 -45 -11 -49 9
-66 12 -10 19 -20 16 -24 -4 -4 -28 14 -54 40 -64 63 -58 84 41 142 41 23 79
42 85 41 5 0 23 -16 38 -35z m103 -35 c41 -60 19 -60 -38 0 -40 41 -48 55 -37
61 16 11 36 -6 75 -61z m363 24 c70 -70 161 -183 185 -231 27 -53 76 -214 76
-247 -1 -11 -14 18 -29 65 -40 120 -64 172 -118 252 -59 87 -119 156 -158 179
-21 14 -25 19 -12 19 10 0 35 -17 56 -37z m-465 -39 c16 -15 21 -45 10 -56 -3
-4 -14 2 -25 13 -23 23 -67 25 -75 4 -9 -22 -23 -8 -17 16 10 36 79 52 107 23z
m106 -85 c0 -4 -13 -12 -30 -19 -38 -16 -65 -7 -54 18 4 9 8 34 9 55 l0 39 37
-44 c21 -23 38 -46 38 -49z m211 -79 c112 -148 216 -328 205 -356 -8 -21 -23
-17 -30 9 -10 40 -123 231 -190 322 -36 49 -66 98 -66 109 0 23 -2 26 81 -84z
m-251 -73 c0 -56 -1 -59 -22 -54 -13 3 -44 9 -70 12 l-48 7 0 57 c0 54 1 57
38 78 l37 21 33 -31 c29 -28 32 -36 32 -90z m667 -249 c-3 -8 -6 -5 -6 6 -1
11 2 17 5 13 3 -3 4 -12 1 -19z m-1822 -164 c-100 -93 -153 -134 -290 -226
-173 -116 -250 -157 -265 -142 -8 8 13 24 72 59 76 43 356 232 474 319 66 48
69 44 9 -10z m-591 -353 c4 -5 -7 -23 -24 -39 -16 -17 -30 -39 -30 -50 0 -31
38 -71 81 -83 21 -7 39 -18 39 -25 0 -7 10 -19 22 -25 21 -12 21 -12 -6 -26
-37 -19 -68 -10 -116 33 -40 37 -109 159 -96 171 8 8 107 52 118 53 4 0 9 -4
12 -9z m71 -55 c36 -15 60 -49 51 -72 -16 -41 -110 -36 -141 9 -19 28 -19 33
5 57 24 24 39 25 85 6z m2272 -2 c-3 -3 -12 -4 -19 -1 -8 3 -5 6 6 6 11 1 17
-2 13 -5z m-2484 -34 c3 -13 -1 -24 -14 -30 -15 -9 -21 -5 -34 19 -14 28 -14
30 8 33 29 5 34 2 40 -22z m2524 4 c-3 -3 -12 -4 -19 -1 -8 3 -5 6 6 6 11 1
17 -2 13 -5z m176 -1 c-7 -2 -21 -2 -30 0 -10 3 -4 5 12 5 17 0 24 -2 18 -5z
m-2280 -67 c15 -11 27 -26 27 -33 0 -23 -40 -93 -53 -92 -30 1 -157 66 -157
80 0 4 9 9 20 12 11 3 28 19 37 36 27 46 60 46 126 -3z m571 -42 c5 -14 4 -15
-9 -4 -17 14 -19 20 -6 20 5 0 12 -7 15 -16z m271 -262 c39 -36 54 -54 35 -40
-20 14 -43 27 -52 29 -23 6 -308 260 -302 270 5 9 205 -153 319 -259z m-1153
-6 c-32 -33 -76 -87 -97 -118 -20 -32 -47 -60 -59 -64 -11 -4 -33 -15 -48 -26
-16 -11 -28 -16 -28 -11 0 23 53 89 150 186 78 78 112 106 124 101 14 -5 6
-18 -42 -68z m1199 -149 c64 -48 149 -98 295 -173 171 -87 146 -78 -149 57
-248 113 -249 113 -225 131 30 23 28 23 79 -15z m2396 -158 c59 -11 144 -29
188 -40 106 -27 328 -99 322 -105 -4 -4 -153 -89 -352 -199 -70 -39 -49 -22
95 80 69 49 135 98 148 109 l23 21 -23 6 c-13 4 -133 37 -268 73 -135 37 -249
68 -255 70 -24 10 22 4 122 -15z m-3645 -16 c54 -57 94 -158 153 -393 19 -74
41 -157 49 -183 l15 -49 -37 7 c-20 3 -96 20 -168 37 l-132 31 -30 51 c-46 77
-64 142 -65 231 -1 85 15 168 43 225 13 26 29 38 66 51 67 24 76 23 106 -8z
m2128 4 c0 -2 -10 -12 -22 -23 l-23 -19 19 23 c18 21 26 27 26 19z m-730 -45
l45 -7 -45 -34 c-44 -32 -243 -152 -308 -185 -52 -27 -76 -18 -83 29 -5 29 -3
42 8 50 11 8 16 32 17 78 l1 66 55 4 c101 6 264 6 310 -1z m680 -16 c0 -2 -8
-10 -17 -17 -16 -13 -17 -12 -4 4 13 16 21 21 21 13z m235 -271 l140 -253 85
-50 c114 -67 290 -154 370 -183 36 -12 68 -28 72 -33 4 -6 8 -31 8 -56 1 -25
7 -79 14 -120 8 -41 12 -76 11 -78 -2 -2 -29 8 -61 21 -33 14 -126 50 -209 82
-82 31 -239 99 -347 152 l-198 97 0 45 c0 88 -37 211 -104 351 -20 41 -32 76
-26 78 5 2 10 9 10 15 0 16 82 187 89 187 3 -1 69 -115 146 -255z m-265 231
c0 -2 -8 -10 -17 -17 -16 -13 -17 -12 -4 4 13 16 21 21 21 13z m-30 -40 c0 -2
-8 -10 -17 -17 -16 -13 -17 -12 -4 4 13 16 21 21 21 13z m2169 -143 c1 -46 -3
-83 -7 -83 -14 0 -30 183 -18 199 16 20 24 -17 25 -116z m-889 -153 c71 -11
210 -50 210 -59 0 -8 -36 -31 -295 -189 l-220 -135 -50 18 c-104 36 -415 195
-415 211 0 20 286 113 443 144 105 20 232 24 327 10z"/>
<path d="M1815 5160 c11 -5 27 -9 35 -9 9 0 8 4 -5 9 -11 5 -27 9 -35 9 -9 0
-8 -4 5 -9z"/>
<path d="M821 4664 c0 -11 3 -14 6 -6 3 7 2 16 -1 19 -3 4 -6 -2 -5 -13z"/>
<path d="M841 4474 c0 -12 7 -28 17 -35 15 -12 16 -12 6 1 -7 8 -14 24 -17 35
-4 19 -5 19 -6 -1z"/>
<path d="M888 4433 c6 -2 18 -2 25 0 6 3 1 5 -13 5 -14 0 -19 -2 -12 -5z"/>
<path d="M880 5638 c-12 -22 -12 -22 6 -6 10 10 15 20 12 24 -4 3 -12 -5 -18
-18z"/>
<path d="M855 5583 c-3 -16 -12 -46 -19 -69 -9 -25 -11 -47 -5 -55 6 -10 9 -6
9 14 0 16 5 38 12 50 11 21 20 87 12 87 -2 0 -6 -12 -9 -27z"/>
<path d="M3442 5114 c10 -10 20 -16 22 -13 3 3 -5 11 -17 18 -21 13 -21 12 -5
-5z"/>
<path d="M725 4318 l-40 -43 43 40 c39 36 47 45 39 45 -2 0 -21 -19 -42 -42z"/>
<path d="M639 4223 c-13 -16 -12 -17 4 -4 9 7 17 15 17 17 0 8 -8 3 -21 -13z"/>
<path d="M586 4135 c-9 -26 -7 -32 5 -12 6 10 9 21 6 23 -2 3 -7 -2 -11 -11z"/>
</g>
</svg>
